# xmcd CD database file
#
# Track frame offsets:
#	150
#	9000
#	29633
#	40985
#	51200
#	59943
#	80028
#	90025
#	98450
#	112288
#	129123
#	146300
#	156283
#	164053
#	178873
#
# Disc length: 2567 seconds
#
# Revision: 0
# Processed by: cddbd v1.5.1PL0 Copyright (c) Steve Scherf et al.
# Submitted via: CDex 1.51
#
DISCID=c50a050f
DTITLE=Trio Bjossa Thor - Við göngum svo léttir ...
DYEAR=1993
DGENRE=Jazz
TTITLE0=Við göngum svo léttir í lundu
TTITLE1=It's so good to be with you
TTITLE2=Fögnum fögrum degi
TTITLE3=Hlíðin mín fríða
TTITLE4=Við lítinn vog
TTITLE5=Hluti af þér
TTITLE6=Ég vil fá mér kærustu
TTITLE7=Lína langsokkur
TTITLE8=Höllukvæði
TTITLE9=Tómthúsamaður
TTITLE10=Blessuð vertu sumarsól
TTITLE11=Afmælisdiktur
TTITLE12=Maðurinn með hattinn
TTITLE13=Dansi, dansi dúkkan mín
TTITLE14=Höllukvæði
EXTD=YEAR: 1993
EXTT0=
EXTT1=
EXTT2=
EXTT3=
EXTT4=
EXTT5=
EXTT6=
EXTT7=
EXTT8=
EXTT9=
EXTT10=
EXTT11=
EXTT12=
EXTT13=
EXTT14=
PLAYORDER=
